<svg width="30" height="29" viewBox="0 0 30 29" fill="none" xmlns="http://www.w3.org/2000/svg">
<path fill-rule="evenodd" clip-rule="evenodd" d="M8.71009 3.34818C10.2956 1.9808 12.5038 1 15 1C19.7079 1 23.6158 4.49902 24.04 9.01322C26.8267 9.40719 29 11.739 29 14.6023C29 17.7466 26.3791 20.25 23.2031 20.25H18.5C18.0168 20.25 17.625 19.8582 17.625 19.375C17.625 18.8918 18.0168 18.5 18.5 18.5H23.2031C25.4637 18.5 27.25 16.7297 27.25 14.6023C27.25 12.4748 25.4637 10.7045 23.2031 10.7045H22.3281V9.82955C22.3281 5.94481 19.0728 2.75 15 2.75C12.9658 2.75 11.1544 3.55102 9.85301 4.67341C8.52903 5.81525 7.83594 7.19202 7.83594 8.27046V9.05455L7.05654 9.14022C4.61149 9.40896 2.75 11.4171 2.75 13.8068C2.75 16.3736 4.90354 18.5 7.61719 18.5H11.5C11.9832 18.5 12.375 18.8918 12.375 19.375C12.375 19.8582 11.9832 20.25 11.5 20.25H7.61719C3.98819 20.25 1 17.3905 1 13.8068C1 10.7214 3.21526 8.16645 6.1489 7.51875C6.39839 6.00798 7.36974 4.50414 8.71009 3.34818Z" fill="white"/>
<path fill-rule="evenodd" clip-rule="evenodd" d="M14.3813 8.25628C14.723 7.91457 15.277 7.91457 15.6187 8.25628L20.8687 13.5063C21.2104 13.848 21.2104 14.402 20.8687 14.7437C20.527 15.0854 19.973 15.0854 19.6313 14.7437L15.875 10.9874V26.375C15.875 26.8582 15.4832 27.25 15 27.25C14.5168 27.25 14.125 26.8582 14.125 26.375V10.9874L10.3687 14.7437C10.027 15.0854 9.47299 15.0854 9.13128 14.7437C8.78957 14.402 8.78957 13.848 9.13128 13.5063L14.3813 8.25628Z" fill="white"/>
<path d="M8.71009 3.34818L9.03663 3.72682L8.71009 3.34818ZM24.04 9.01322L23.5422 9.06L23.5791 9.45304L23.97 9.5083L24.04 9.01322ZM22.3281 10.7045H21.8281V11.2045H22.3281V10.7045ZM9.85301 4.67341L9.52646 4.29477V4.29477L9.85301 4.67341ZM7.83594 9.05455L7.89057 9.55156L8.33594 9.5026V9.05455H7.83594ZM7.05654 9.14022L7.00191 8.64321L7.05654 9.14022ZM6.1489 7.51875L6.25669 8.00699L6.58709 7.93404L6.64222 7.60021L6.1489 7.51875ZM15.6187 8.25628L15.2652 8.60984L15.6187 8.25628ZM14.3813 8.25628L14.7348 8.60984H14.7348L14.3813 8.25628ZM20.8687 13.5063L20.5152 13.8598V13.8598L20.8687 13.5063ZM20.8687 14.7437L20.5152 14.3902V14.3902L20.8687 14.7437ZM19.6313 14.7437L19.9848 14.3902L19.6313 14.7437ZM15.875 10.9874L16.2286 10.6339C16.0856 10.4909 15.8705 10.4481 15.6837 10.5255C15.4968 10.6029 15.375 10.7852 15.375 10.9874H15.875ZM14.125 10.9874H14.625C14.625 10.7852 14.5032 10.6029 14.3163 10.5255C14.1295 10.4481 13.9144 10.4909 13.7714 10.6339L14.125 10.9874ZM10.3687 14.7437L10.0152 14.3902H10.0152L10.3687 14.7437ZM9.13128 14.7437L9.48484 14.3902L9.48483 14.3902L9.13128 14.7437ZM9.13128 13.5063L9.48483 13.8598V13.8598L9.13128 13.5063ZM15 1V0.5C12.3717 0.5 10.0502 1.5322 8.38354 2.96954L8.71009 3.34818L9.03663 3.72682C10.541 2.4294 12.6358 1.5 15 1.5V1ZM24.04 9.01322L24.5378 8.96644C24.0884 4.18485 19.9553 0.5 15 0.5V1V1.5C19.4606 1.5 23.1431 4.81319 23.5422 9.06L24.04 9.01322ZM29 14.6023H29.5C29.5 11.4742 27.1274 8.94474 24.11 8.51814L24.04 9.01322L23.97 9.5083C26.5259 9.86964 28.5 12.0038 28.5 14.6023H29ZM23.2031 20.25V20.75C26.6399 20.75 29.5 18.0378 29.5 14.6023H29H28.5C28.5 17.4554 26.1182 19.75 23.2031 19.75V20.25ZM18.5 20.25V20.75H23.2031V20.25V19.75H18.5V20.25ZM17.625 19.375H17.125C17.125 20.1344 17.7406 20.75 18.5 20.75V20.25V19.75C18.2929 19.75 18.125 19.5821 18.125 19.375H17.625ZM18.5 18.5V18C17.7406 18 17.125 18.6156 17.125 19.375H17.625H18.125C18.125 19.1679 18.2929 19 18.5 19V18.5ZM23.2031 18.5V18H18.5V18.5V19H23.2031V18.5ZM27.25 14.6023H26.75C26.75 16.4402 25.2012 18 23.2031 18V18.5V19C25.7262 19 27.75 17.0193 27.75 14.6023H27.25ZM23.2031 10.7045V11.2045C25.2012 11.2045 26.75 12.7644 26.75 14.6023H27.25H27.75C27.75 12.1852 25.7262 10.2045 23.2031 10.2045V10.7045ZM22.3281 10.7045V11.2045H23.2031V10.7045V10.2045H22.3281V10.7045ZM22.3281 9.82955H21.8281V10.7045H22.3281H22.8281V9.82955H22.3281ZM15 2.75V3.25C18.8107 3.25 21.8281 6.23482 21.8281 9.82955H22.3281H22.8281C22.8281 5.6548 19.3349 2.25 15 2.25V2.75ZM9.85301 4.67341L10.1796 5.05205C11.3998 3.9997 13.0977 3.25 15 3.25V2.75V2.25C12.8338 2.25 10.9091 3.10234 9.52646 4.29477L9.85301 4.67341ZM7.83594 8.27046H8.33594C8.33594 7.38442 8.92432 6.1346 10.1796 5.05205L9.85301 4.67341L9.52646 4.29477C8.13374 5.4959 7.33594 6.99963 7.33594 8.27046H7.83594ZM7.83594 9.05455H8.33594V8.27046H7.83594H7.33594V9.05455H7.83594ZM7.05654 9.14022L7.11117 9.63722L7.89057 9.55156L7.83594 9.05455L7.78131 8.55754L7.00191 8.64321L7.05654 9.14022ZM2.75 13.8068H3.25C3.25 11.6857 4.90586 9.87962 7.11117 9.63722L7.05654 9.14022L7.00191 8.64321C4.31712 8.93831 2.25 11.1486 2.25 13.8068H2.75ZM7.61719 18.5V18C5.16588 18 3.25 16.0839 3.25 13.8068H2.75H2.25C2.25 16.6634 4.6412 19 7.61719 19V18.5ZM11.5 18.5V18H7.61719V18.5V19H11.5V18.5ZM12.375 19.375H12.875C12.875 18.6156 12.2594 18 11.5 18V18.5V19C11.7071 19 11.875 19.1679 11.875 19.375H12.375ZM11.5 20.25V20.75C12.2594 20.75 12.875 20.1344 12.875 19.375H12.375H11.875C11.875 19.5821 11.7071 19.75 11.5 19.75V20.25ZM7.61719 20.25V20.75H11.5V20.25V19.75H7.61719V20.25ZM1 13.8068H0.5C0.5 17.6816 3.72726 20.75 7.61719 20.75V20.25V19.75C4.24912 19.75 1.5 17.0994 1.5 13.8068H1ZM6.1489 7.51875L6.0411 7.0305C2.89327 7.7255 0.5 10.4719 0.5 13.8068H1H1.5C1.5 10.971 3.53724 8.60741 6.25669 8.00699L6.1489 7.51875ZM8.71009 3.34818L8.38354 2.96954C6.98043 4.17963 5.92907 5.7812 5.65558 7.43728L6.1489 7.51875L6.64222 7.60021C6.86771 6.23476 7.75904 4.82866 9.03663 3.72682L8.71009 3.34818ZM15.6187 8.25628L15.9723 7.90273C15.4353 7.36576 14.5647 7.36576 14.0277 7.90273L14.3813 8.25628L14.7348 8.60984C14.8813 8.46339 15.1187 8.46339 15.2652 8.60984L15.6187 8.25628ZM20.8687 13.5063L21.2223 13.1527L15.9723 7.90273L15.6187 8.25628L15.2652 8.60984L20.5152 13.8598L20.8687 13.5063ZM20.8687 14.7437L21.2223 15.0973C21.7592 14.5603 21.7592 13.6897 21.2223 13.1527L20.8687 13.5063L20.5152 13.8598C20.6616 14.0063 20.6616 14.2437 20.5152 14.3902L20.8687 14.7437ZM19.6313 14.7437L19.2777 15.0973C19.8147 15.6342 20.6853 15.6342 21.2223 15.0973L20.8687 14.7437L20.5152 14.3902C20.3687 14.5366 20.1313 14.5366 19.9848 14.3902L19.6313 14.7437ZM15.875 10.9874L15.5214 11.341L19.2777 15.0973L19.6313 14.7437L19.9848 14.3902L16.2286 10.6339L15.875 10.9874ZM15.875 26.375H16.375V10.9874H15.875H15.375V26.375H15.875ZM15 27.25V27.75C15.7594 27.75 16.375 27.1344 16.375 26.375H15.875H15.375C15.375 26.5821 15.2071 26.75 15 26.75V27.25ZM14.125 26.375H13.625C13.625 27.1344 14.2406 27.75 15 27.75V27.25V26.75C14.7929 26.75 14.625 26.5821 14.625 26.375H14.125ZM14.125 10.9874H13.625V26.375H14.125H14.625V10.9874H14.125ZM10.3687 14.7437L10.7223 15.0973L14.4786 11.341L14.125 10.9874L13.7714 10.6339L10.0152 14.3902L10.3687 14.7437ZM9.13128 14.7437L8.77773 15.0973C9.3147 15.6342 10.1853 15.6342 10.7223 15.0973L10.3687 14.7437L10.0152 14.3902C9.86872 14.5366 9.63128 14.5366 9.48484 14.3902L9.13128 14.7437ZM9.13128 13.5063L8.77773 13.1527C8.24076 13.6897 8.24076 14.5603 8.77773 15.0973L9.13128 14.7437L9.48483 14.3902C9.33839 14.2437 9.33839 14.0063 9.48483 13.8598L9.13128 13.5063ZM14.3813 8.25628L14.0277 7.90273L8.77773 13.1527L9.13128 13.5063L9.48483 13.8598L14.7348 8.60984L14.3813 8.25628Z" fill="white"/>
</svg>
